<svg width="111" height="24" viewBox="0 0 111 24" fill="none" xmlns="http://www.w3.org/2000/svg">
<path d="M9.37187 15.4061C7.70465 15.4061 6.1944 14.7302 5.10158 13.6373C4.00885 12.5444 3.33264 11.0346 3.33264 9.36698C3.33264 7.6996 4.00885 6.18951 5.10158 5.09669C6.1944 4.00363 7.70465 3.32776 9.37187 3.32776C11.0394 3.32776 12.5496 4.00363 13.6425 5.09669C14.7351 6.18951 15.4111 7.6996 15.4111 9.36698H13.2854C13.2854 8.28622 12.8474 7.30775 12.1392 6.59961C11.4313 5.89179 10.4525 5.4539 9.37195 5.4539C8.29152 5.4539 7.31305 5.89171 6.60474 6.59961C5.89684 7.30775 5.4587 8.28622 5.4587 9.36698C5.4587 10.4476 5.89676 11.4264 6.60474 12.1341C7.31305 12.8421 8.29152 13.2801 9.37195 13.2801V15.4061H9.37187ZM9.36991 20.6924L10.0341 19.9198C12.3022 17.2861 15.7252 13.311 16.2773 11.5821C16.6837 10.3094 16.7302 8.94506 16.416 7.65037C16.1143 6.40564 15.4741 5.22212 14.4955 4.24356C13.797 3.54503 12.9988 3.02059 12.1518 2.67014C11.2617 2.30161 10.3149 2.11709 9.36991 2.11742C8.42477 2.11709 7.47808 2.30161 6.58803 2.67014C5.7411 3.02059 4.94266 3.54495 4.24446 4.24356C3.26582 5.22212 2.62556 6.40564 2.32377 7.65037C2.00984 8.94506 2.05622 10.3094 2.46273 11.5821C3.01489 13.311 6.43792 17.2861 8.70586 19.9198L9.36999 20.6924H9.36991ZM11.6366 21.3065C11.0454 21.9932 10.5305 22.5914 10.1877 23.007L9.36983 24L8.55175 23.007C8.20929 22.5914 7.69422 21.9932 7.10286 21.3065C4.7231 18.5431 1.13112 14.3721 0.444659 12.2214C-0.0801117 10.5788 -0.140504 8.82012 0.264056 7.15201C0.65688 5.5323 1.48279 3.99882 2.74097 2.7408C3.63436 1.84733 4.67078 1.1704 5.78242 0.7101C6.9265 0.236673 8.14768 -0.000488238 9.36983 7.5462e-07C10.5921 -0.000488238 11.8132 0.236673 12.9572 0.7101C14.0688 1.17049 15.1053 1.84733 15.9987 2.7408C17.257 3.99882 18.0829 5.5323 18.4757 7.15201C18.8802 8.8202 18.8199 10.5788 18.2953 12.2214C17.6087 14.372 14.0166 18.5431 11.6366 21.3065H11.6366Z" fill="black"/>
<path fill-rule="evenodd" clip-rule="evenodd" d="M9.37163 6.67368C10.8592 6.67368 12.0649 7.87953 12.0649 9.36713C12.0649 10.8546 10.8592 12.0604 9.37163 12.0604C7.88404 12.0604 6.67834 10.8546 6.67834 9.36713C6.67834 7.87953 7.88404 6.67368 9.37163 6.67368Z" fill="black"/>
<path fill-rule="evenodd" clip-rule="evenodd" d="M9.37224 8.51843C9.84102 8.51843 10.221 8.89838 10.221 9.36716C10.221 9.83578 9.84102 10.2157 9.37224 10.2157C8.90346 10.2157 8.52368 9.83578 8.52368 9.36716C8.52368 8.89838 8.90346 8.51843 9.37224 8.51843Z" fill="white"/>
<path d="M35.7366 5.66742H25.7761V7.81251H29.3761V17.9968H32.1553V7.81251H35.7366V5.66742ZM46.1635 5.66742H36.203V7.81251H39.803V17.9968H42.5821V7.81251H46.1635V5.66742ZM52.3747 14.2476V12.5876H47.3946V14.2476H52.3747ZM63.0627 7.83117V5.68608H54.6316V17.9968H57.4109V7.8311H63.0627V7.83117ZM67.39 17.9968V14.0238H69.4417C70.7848 14.0238 71.8666 13.632 72.706 12.8301C73.5454 12.028 73.9744 11.0395 73.9744 9.82705C73.9744 8.68927 73.5641 7.71928 72.762 6.91722C71.9599 6.11523 70.8034 5.70481 69.3113 5.70481H64.5922V17.9969H67.3901L67.39 17.9968ZM68.8449 7.77519C70.393 7.77519 71.1951 8.70786 71.1951 9.88296C71.1951 11.0022 70.5235 11.9534 68.8261 11.9534H67.3714V7.77519H68.8448H68.8449ZM78.8241 15.2921C78.5443 15.9077 78.1153 16.2061 77.4997 16.2061C77.0334 16.2061 76.3806 16.001 75.5598 15.5719V17.8289C76.306 18.1646 77.052 18.3326 77.7981 18.3326C79.2343 18.3326 80.3162 17.7357 81.1182 16.0196L85.8374 5.68615H82.9834L80.1669 12.2705H80.0923L77.4437 5.68615H74.4593L78.9546 14.9938L78.824 15.2922L78.8241 15.2921ZM97.6632 5.68608H87.1805V17.9968H89.9597V7.8311H94.8839V17.9968H97.6632V5.68608ZM110.683 5.68608H100.2V17.9968H102.979V7.8311H107.904V17.9968H110.683V5.68608Z" fill="black"/>
</svg>
