<svg width="58" height="58" viewBox="0 0 58 58" fill="none" xmlns="http://www.w3.org/2000/svg">
<path d="M4 44.5V45C4 46.1046 4.89543 47 6 47H52C53.1046 47 54 46.1046 54 45V19M4 38V13C4 11.8954 4.89543 11 6 11H52C53.1046 11 54 11.8954 54 13V13" stroke="#7C7C7C" stroke-width="1.5" stroke-linecap="round"/>
<path d="M37 7V2C37 1.44772 36.5523 1 36 1H22C21.4477 1 21 1.44772 21 2V11" stroke="#7C7C7C" stroke-width="1.5" stroke-linecap="round"/>
<path d="M29 57V50" stroke="#7C7C7C" stroke-width="1.5" stroke-linecap="round" stroke-linejoin="round"/>
<path d="M1 44L10.52 35.8644L14.44 39.4237L18.92 34.339L22.28 37.8983V30.2712L30.12 39.9322L34.6 26.7119L42.44 34.8475L45.8 21.6271L57 14" stroke="#7C7C7C" stroke-width="1.5" stroke-linecap="round" stroke-linejoin="round"/>
<path d="M15 57H43" stroke="#7C7C7C" stroke-width="1.5" stroke-linecap="round" stroke-linejoin="round"/>
<path d="M1 6H17" stroke="#7C7C7C" stroke-width="1.5" stroke-linecap="round" stroke-linejoin="round"/>
<path d="M41 6L57 6" stroke="#7C7C7C" stroke-width="1.5" stroke-linecap="round" stroke-linejoin="round"/>
<path d="M1 50H57" stroke="#7C7C7C" stroke-width="1.5" stroke-linecap="round" stroke-linejoin="round"/>
</svg>
