<svg width="58" height="56" viewBox="0 0 58 56" fill="none" xmlns="http://www.w3.org/2000/svg">
<path d="M19.2317 37.4656C19.2317 36.361 20.1271 35.4656 21.2317 35.4656H36.7666C37.8711 35.4656 38.7666 36.361 38.7666 37.4656L38.7666 49.6056C38.7666 50.7997 38.0602 51.8805 36.9386 52.2904C34.9589 53.0139 31.7537 54.0237 29.2861 54.0237C26.7885 54.0237 23.2929 52.9891 21.1499 52.2641C19.9832 51.8694 19.2317 50.7628 19.2317 49.5312V37.4656Z" stroke="#7C7C7C" stroke-width="1.5" stroke-linecap="round"/>
<path d="M28.8174 43.5291L28.8174 47.7267" stroke="#7C7C7C" stroke-width="1.5" stroke-linecap="round"/>
<path d="M36.0002 34.9999V34.9999C36.0002 31.134 32.8662 28 29.0002 28.0001V28.0001C25.1343 28.0001 22.0002 31.1341 22.0002 35V35" stroke="#7C7C7C" stroke-width="1.5" stroke-linecap="round"/>
<path d="M39 9V6C39 3.23858 36.7614 1 34 1H24C21.2386 1 19 3.23858 19 6V9" stroke="#7C7C7C" stroke-width="1.5" stroke-linecap="round"/>
<path d="M19.2331 31.4885L3.73558 26.9045C2.88589 26.6532 2.30286 25.8727 2.30286 24.9867V10.9536C2.30286 9.84904 3.19829 8.95361 4.30286 8.95361H53.6982C54.8028 8.95361 55.6982 9.84904 55.6982 10.9536V24.9867C55.6982 25.8727 55.1152 26.6532 54.2655 26.9045L38.768 31.4885" stroke="#7C7C7C" stroke-width="1.5" stroke-linecap="round"/>
<path d="M3.60465 27.5121V51.3725M54.3953 27.5121V51.3725M57 51.3725H41.6977M1 51.3725H16.3023" stroke="#7C7C7C" stroke-width="1.5" stroke-linecap="round"/>
</svg>
