<svg width="58" height="56" viewBox="0 0 58 56" fill="none" xmlns="http://www.w3.org/2000/svg">
<path d="M39.9593 15.8137C38.3359 19.0354 35.0211 22.651 29.3742 26.1118C19.3649 20.9829 16.637 15.8174 16.4304 12.0077C16.2238 8.19797 18.5192 5.38691 22.5671 5.16743C25.8053 4.99185 27.6555 7.25975 28.4091 8.31341C28.9499 7.12984 30.4729 4.73876 34.7405 4.50737C37.3955 4.36341 39.3246 6.02563 40.3537 7.90321M23.2388 7.87409C20.6354 8.01526 19.159 9.82326 19.2919 12.2736M33.9741 40.7781C34.0576 39.5661 34.2784 36.7716 34.4935 35.2886C34.7625 33.4349 35.4103 30.5007 37.9298 27.4431C40.4492 24.3855 44.6134 22.157 45.8799 21.6844C46.8767 21.3125 47.7368 21.6843 48.3585 22.4415M48.3585 22.4415C48.9803 23.1987 49.2289 24.1808 48.5465 24.8211C48.0005 25.3333 44.6491 28.2726 43.0679 29.7005M48.3585 22.4415C49.5902 18.7526 52.1083 11.3098 52.3076 10.864C52.5568 10.3068 53.1939 9.40136 54.8418 9.53998C56.4897 9.67861 57.2151 11.747 56.9448 12.9655C56.6745 14.184 54.6454 24.9969 54.3273 27.0804C54.1846 28.015 53.9284 28.8163 53.6248 29.4588M32.0315 51.5014L32.0248 40.8689L46.4704 40.8598L46.4771 51.4923L36.149 51.4988M44.4626 40.7352C44.4277 40.2296 44.4622 38.9323 44.8792 37.7879C45.4005 36.3575 46.2685 35.1111 48.8997 33.4386C49.368 33.1205 50.1074 32.6187 50.8 32.1496M49.1213 20.1662C48.799 17.838 47.8424 12.9217 47.733 12.0312C47.5963 10.9181 48.5879 9.86246 49.7458 9.6733C50.9036 9.48413 52.2015 10.139 52.181 11.1179M24.0259 40.7781C23.9424 39.5661 23.7216 36.7716 23.5065 35.2886C23.2375 33.4349 22.5897 30.5007 20.0702 27.4431C17.5508 24.3855 13.3866 22.157 12.1201 21.6844C11.1233 21.3125 10.2632 21.6843 9.64146 22.4415M9.64146 22.4415C9.01972 23.1987 8.77113 24.1808 9.45355 24.8211C9.99948 25.3333 13.3509 28.2726 14.9321 29.7005M9.64146 22.4415C8.4098 18.7526 5.89172 11.3098 5.69236 10.864C5.44317 10.3068 4.80613 9.40136 3.15819 9.53998C1.51025 9.67861 0.784946 11.747 1.05521 12.9655C1.32547 14.184 3.35461 24.9969 3.67274 27.0804C3.81544 28.015 4.0716 28.8163 4.37524 29.4588M25.9752 40.8689L11.5296 40.8598L11.5229 51.4923L25.9685 51.5014L25.9727 44.8184M13.5374 40.7352C13.5723 40.2296 13.5378 38.9323 13.1208 37.7879C12.5995 36.3575 11.7315 35.1111 9.10025 33.4386C8.632 33.1205 7.8926 32.6187 7.19999 32.1496M8.8787 20.1662C9.20101 17.838 10.1576 12.9217 10.267 12.0312C10.4037 10.9181 9.41207 9.86246 8.25424 9.6733C7.09641 9.48413 5.79854 10.139 5.81897 11.1179M2.85599 11.0114C3.03029 11.7086 3.37888 13.3644 3.37888 14.4102C3.37888 15.456 2.12405 15.4648 1.51401 15.2905M55.1451 11.0114C54.9708 11.7086 54.6222 13.3644 54.6222 14.4102C54.6222 15.456 55.8422 15.3689 56.4523 15.1946M10.1765 24.3451C10.6122 24.7809 11.5883 25.7047 12.0066 25.9138C12.5295 26.1753 14.5106 24.2623 13.5752 23.5608C13.0524 23.1686 12.7909 23.0379 11.7451 22.515C10.9608 22.7765 10.4379 23.0379 10.1765 24.3451ZM47.8105 24.3451C47.3748 24.7809 46.3987 25.7047 45.9804 25.9138C45.8233 25.9924 45.5345 25.8746 45.2327 25.6524C45.0422 25.512 44.8464 25.33 44.6754 25.1295C44.216 24.5908 43.9349 23.9184 44.4117 23.5608C44.9346 23.1686 45.1961 23.0379 46.2419 22.515C47.0262 22.7765 47.5491 23.0379 47.8105 24.3451ZM16.974 44.4764C16.974 45.3428 16.2717 46.0451 15.4054 46.0451C14.539 46.0451 13.8367 45.3428 13.8367 44.4764C13.8367 43.6101 14.539 42.9078 15.4054 42.9078C16.2717 42.9078 16.974 43.6101 16.974 44.4764ZM44.1644 44.4764C44.1644 45.3428 43.462 46.0451 42.5957 46.0451C41.7293 46.0451 41.027 45.3428 41.027 44.4764C41.027 43.6101 41.7293 42.9078 42.5957 42.9078C43.462 42.9078 44.1644 43.6101 44.1644 44.4764Z" stroke="#7C7C7C" stroke-width="1.5" stroke-linecap="round"/>
</svg>
