<svg width="58" height="58" viewBox="0 0 58 58" fill="none" xmlns="http://www.w3.org/2000/svg">
<path d="M12.2941 26.1525C14.1765 25.678 19.353 24.7288 25 24.7288M28.294 57L24.8526 26.6323C24.6594 24.9274 25.575 23.2891 27.1285 22.5605L33.4963 19.5736C34.1985 19.2442 34.6469 18.5386 34.6469 17.7629V16.8882C34.6469 16.2937 34.3666 15.7432 33.9781 15.2932C33.3559 14.5727 32.908 13.6895 32.7037 12.7106C31.8129 12.5962 31.1175 11.6359 31.1175 10.4678C31.1175 9.43798 31.6582 8.56942 32.3967 8.29996L32.3424 7.30218C32.1565 3.87955 34.8221 1 38.1764 1C41.5306 1 44.1962 3.87955 44.0103 7.30218L43.956 8.29996C44.6945 8.56942 45.2352 9.43798 45.2352 10.4678C45.2352 11.6359 44.5398 12.5962 43.6491 12.7106C43.4447 13.6895 42.9968 14.5727 42.3747 15.2932C41.9862 15.7432 41.7058 16.2937 41.7058 16.8882V17.7629C41.7058 18.5386 42.1542 19.2442 42.8564 19.5736L49.7739 22.8183C51.0455 23.4148 51.9111 24.6344 52.0544 26.0316L53.2352 37.5424L42.4117 49.4068M50.4118 34.6949H36.8824V47.4068H41.0001M55.1609 34.6949H57V47.4068H47.0001M49.9411 49.4068V56.0508M36.8823 38.9153H49M55 38.9153H57M19.353 34.2203H25.4706M29.2352 10.017C26.2548 9.85878 19.5411 10.017 16.5294 11.9153C12.7646 14.2882 7.58817 26.1525 7.11758 30.8983V48.4576M18.8823 46.5593V48.2542C18.8823 50.4634 17.0914 52.2542 14.8823 52.2542H11.1176C8.90845 52.2542 7.11758 50.4634 7.11758 48.2542V46.5593M18.8823 46.5593H10.8823M18.8823 46.5593H26.8823M8.52941 24.7288H3.84746C2.27485 24.7288 1 26.0037 1 27.5763C1 29.1489 2.27485 30.4237 3.84746 30.4237H7.58824M10.8824 43.7119H26.8824M11.4705 37.0678H17.8235C18.928 37.0678 19.8235 36.1724 19.8235 35.0678V33.3729C19.8235 32.2683 18.928 31.3729 17.8235 31.3729H11.4705C10.366 31.3729 9.47054 32.2683 9.47054 33.3729V35.0678C9.47054 36.1724 10.366 37.0678 11.4705 37.0678Z" stroke="#7C7C7C" stroke-width="1.5"/>
</svg>
