<svg width="58" height="58" viewBox="0 0 58 58" fill="none" xmlns="http://www.w3.org/2000/svg">
<path d="M11 47C11 50 12.5 49.5 12.5 52C12.5 54.5 11 54 11 57M18 47C18 50 19.5 49.5 19.5 52C19.5 54.5 18 54 18 57M25 47C25 50 26.5 49.5 26.5 52C26.5 54.5 25 54 25 57M31 43H5M31 43C33.2091 43 35 41.2091 35 39V27C35 24.7909 33.2091 23 31 23H5C2.79086 23 1 24.7909 1 27V31M31 43C31 40.7909 29.2091 39 27 39H9C6.79086 39 5 40.7909 5 43M5 43C2.79086 43 1 41.2091 1 39V37M39.5 39H53C55.2091 39 57 37.2091 57 35V5C57 2.79086 55.2091 1 53 1H50M10 19V5C10 2.79086 11.7909 1 14 1H43M6 28H7M10 28H11M25 28H30M16 7H17M20 7H21M16 11H26.5M16 15H24.5M16 19H22.5M39.5 34.9906C39.6659 34.9968 39.8326 35 40 35C47.1797 35 53 29.1797 53 22C53 14.8203 47.1797 9 40 9C33.8528 9 28.7022 13.2666 27.3478 19M40 15V21.9999M40 21.9999V29M40 21.9999L47 22M40 21.9999L36 22M40 21.9999L44.9497 17.0502M40 21.9999L37.9999 24M40 21.9999L44.9497 26.9496M40 21.9999L35.0502 17.0502" stroke="#7C7C7C" stroke-width="1.5" stroke-linecap="round" stroke-linejoin="round"/>
</svg>
