<svg width="58" height="58" viewBox="0 0 58 58" fill="none" xmlns="http://www.w3.org/2000/svg">
<path d="M4.63488 25.5C2.34477 28.753 1 32.7194 1 37C1 48.0457 9.9543 57 21 57C32.0457 57 41 48.0457 41 37C41 25.9543 32.0457 17 21 17C17.1316 17 13.5197 18.0983 10.4592 20" stroke="#7C7C7C" stroke-width="1.5" stroke-linecap="round"/>
<circle cx="37" cy="21" r="20" stroke="#7C7C7C" stroke-width="1.5" stroke-linecap="round"/>
<path d="M17.5 18L34 1.5M17.5 22.5L35 5M18 27L43 2M19.5 30.5L24.3395 25.6605M46.5 3.5L29 21M25.5 30L49.5 6M24.5 36.5L52.5 8.5M28.5 38.5L44.5 22.5M54.5 12.5L50.5 16.5M32.5 40L56 16.5M37 41L57 21M43 40L56 27" stroke="#7C7C7C" stroke-width="1.5" stroke-linecap="round" stroke-linejoin="round"/>
</svg>
