<svg width="58" height="58" viewBox="0 0 58 58" fill="none" xmlns="http://www.w3.org/2000/svg">
<path d="M1 45V3C1 1.89543 1.89543 1 3 1H24M1 52V55C1 56.1046 1.89543 57 3 57H21C22.1046 57 23 56.1046 23 55V23C23 22.4477 23.4477 22 24 22H30C30.5523 22 31 21.5523 31 21V13C31 12.4477 31.4477 12 32 12H39.382C40.1253 12 40.6088 11.2177 40.2764 10.5528L36.0528 2.10557C35.714 1.428 35.0215 1 34.2639 1H31M17 33V23C17 22.4477 16.5523 22 16 22H8C7.44772 22 7 22.4477 7 23V43C7 43.5523 7.44772 44 8 44H16C16.5523 44 17 43.5523 17 43V38.5M7.5 12H11M15 12L26 12M23 36H56M56 36C56.5523 36 57 36.4477 57 37V41M56 36L48 44M54 44H23M24 44L32 36M32 44L40 36M40 44L48 36" stroke="#7C7C7C" stroke-width="1.5" stroke-linecap="round"/>
</svg>
