<svg
  width="58"
  height="58"
  viewBox="0 0 58 58"
  fill="none"
  xmlns="http://www.w3.org/2000/svg"
>
<path
    d="M34.4206 32.1918V18.6083M26.3238 32.1918V5.02475C26.3238 2.80194 28.1363 1 30.3722 1C32.6081 1 34.4206 2.80194 34.4206 5.02475V11.8165M34.4206 7.03713H37.1195C40.1007 7.03713 42.5174 4.63454 42.5174 1.67079C42.5174 1.30032 42.2153 1 41.8426 1H18.9018C18.5291 1 18.227 1.30032 18.227 1.67079C18.227 4.63454 20.6437 7.03713 23.6249 7.03713H26.3238M26.3238 23.8458L18.0607 21.6446C16.9809 21.357 15.8709 21.994 15.5816 23.0676L10.3426 42.5056C10.0532 43.5792 10.6941 44.6826 11.7739 44.9703L28 49.2927M34.4206 26.0026L43.4786 28.4156C44.5584 28.7032 45.1993 29.8067 44.9099 30.8802L39.6709 50.3183C39.3816 51.3918 38.2716 52.0289 37.1918 51.7412L33 50.6246M37.4569 51.8125L37.9055 54.8413C38.0231 55.6355 38.6042 56.2842 39.3842 56.492L41.0321 56.9309C42.1119 57.2186 43.2219 56.5815 43.5112 55.508L50.8458 28.2947C51.1352 27.2211 50.4943 26.1177 49.4145 25.83L47.6503 25.3601C46.9306 25.1684 46.1631 25.3852 45.6524 25.9247L43.5295 28.1671M44.5416 51.8125C48.0273 50.5601 50.9463 47.4875 52.0491 43.3956C53.152 39.3037 52.1694 35.1918 49.7806 32.3745M15.0577 25.0113L9.192 23.4488C8.11216 23.1611 7.00222 23.7982 6.71288 24.8718L3.56948 36.5346C3.28013 37.6081 3.92096 38.7116 5.0008 38.9993L10.8665 40.5618M6.18897 26.8156L11 28M5.14123 30.7032L12.9621 32.7866M7.5 35.5L11.9143 36.6742M22.7418 22.8916L16.5 46.2293M36.4448 37.2228C36.4448 40.557 33.726 43.2599 30.3722 43.2599C27.0184 43.2599 24.2996 40.557 24.2996 37.2228C24.2996 33.8886 27.0184 31.1857 30.3722 31.1857C33.726 31.1857 36.4448 33.8886 36.4448 37.2228Z"
    stroke="#7C7C7C"
    stroke-width="1.5"
    stroke-linecap="round"
    stroke-linejoin="round"
  />
</svg>
