<svg
  width="58"
  height="58"
  viewBox="0 0 58 58"
  fill="none"
  xmlns="http://www.w3.org/2000/svg"
>
<path
    d="M28.2 42.9239C28.7933 42.9743 29.3937 43 30 43C41.598 43 51 33.598 51 22C51 10.402 41.598 1 30 1C18.402 1 9 10.402 9 22C9 27.8761 11.4134 33.1885 15.3031 37M15 22C15 13.7157 21.7157 7 30 7M36.6 22C36.6 25.6451 33.6451 28.6 30 28.6C26.3549 28.6 23.4 25.6451 23.4 22C23.4 18.3549 26.3549 15.4 30 15.4C33.6451 15.4 36.6 18.3549 36.6 22Z"
    stroke-width="1.5"
    stroke-linecap="round"
    stroke="#ffffff"
  />
<path
    d="M1 40.5H9.95558C10.5249 40.5 10.977 40.9752 11.0019 41.544C11.022 42.0026 11.0674 42.4922 11.1434 43M19 52C27.4 52 49 52 57 52"
    stroke-width="1.5"
    stroke-linecap="round"
  />
<path
    d="M25.9272 34.69C26.3249 34.3669 26.9026 34.3967 27.2649 34.7591L27.4037 34.8978C27.766 35.2602 27.7958 35.8378 27.4727 36.2355L12.179 55.0585C10.83 56.7188 8.34085 56.8472 6.82819 55.3345V55.3345C5.31553 53.8219 5.44394 51.3327 7.10422 49.9837L25.9272 34.69Z"
    stroke-width="1.5"
    stroke-linecap="round"
    stroke="#ffffff"
  />
<circle
    cx="10"
    cy="52"
    r="1"
    stroke-width="1.5"
    stroke-linecap="round"
    stroke="#ffffff"
  />
</svg>
