<svg width="57" height="58" viewBox="0 0 57 58" fill="none" xmlns="http://www.w3.org/2000/svg">
<path d="M50 11.6667L38.1875 1M50 11.6667H40.1875C39.0829 11.6667 38.1875 10.7712 38.1875 9.66666V1M50 11.6667V55C50 56.1046 49.1046 57 48 57H10C8.89543 57 8 56.1046 8 55V52.5M38.1875 1H10C8.89543 1 8 1.89543 8 3V21.5" stroke="#7C7C7C" stroke-width="1.5" stroke-linecap="round"/>
<path d="M17 10H32" stroke="#7C7C7C" stroke-width="1.5" stroke-linecap="round" stroke-linejoin="round"/>
<path d="M25 21L41 21" stroke="#7C7C7C" stroke-width="1.5" stroke-linecap="round" stroke-linejoin="round"/>
<path d="M27 26H41" stroke="#7C7C7C" stroke-width="1.5" stroke-linecap="round" stroke-linejoin="round"/>
<path d="M31 31L41 31" stroke="#7C7C7C" stroke-width="1.5" stroke-linecap="round" stroke-linejoin="round"/>
<path d="M25 51L31 51" stroke="#7C7C7C" stroke-width="1.5" stroke-linecap="round" stroke-linejoin="round"/>
<circle cx="41" cy="48" r="4" stroke="#7C7C7C" stroke-width="1.5" stroke-linecap="round" stroke-linejoin="round"/>
<path d="M24.4816 33.5C24.8187 34.6073 25 35.7825 25 37C25 43.6274 19.6274 49 13 49C6.37258 49 1 43.6274 1 37C1 30.3726 6.37258 25 13 25C14.9823 25 16.8524 25.4807 18.5 26.3318" stroke="#7C7C7C" stroke-width="1.5" stroke-linecap="round"/>
<path d="M9 35.8696L11.6732 38.3491C12.0657 38.7131 12.6752 38.7035 13.056 38.3274L22.5 29" stroke="#7C7C7C" stroke-width="1.5" stroke-linecap="round"/>
</svg>
