<svg width="56" height="56" viewBox="0 0 56 56" fill="none" xmlns="http://www.w3.org/2000/svg">
<path d="M10.6667 8.62041C5.34751 13.3812 2 20.2997 2 28C2 42.3594 13.6406 54 28 54C33.6601 54 38.8978 52.1914 43.1667 49.1205M10.6667 8.62041H6.33333M10.6667 8.62041V12.8333M13.9167 6.14085C17.9751 3.5207 22.81 2 28 2C42.3594 2 54 13.6406 54 28C54 35.3276 50.9687 41.9472 46.0918 46.6732M46.0918 46.6732V42.625M46.0918 46.6732H50.2083M24.75 29.0832L26.9167 31.2498L32.3333 25.8332M30.9885 11.75H25.0115L24.1629 16.8416C23.6957 16.9945 23.2408 17.1745 22.8001 17.3799L18.623 14.3962L14.3967 18.6226L17.2201 22.5755C16.9264 23.1034 16.6703 23.6552 16.4555 24.2272L11.75 25.0115V30.9885L16.0784 31.7099C16.2786 32.4695 16.5494 33.2004 16.8834 33.8952L14.3962 37.3772L18.6226 41.6036L21.8901 39.2697C22.6647 39.7126 23.4919 40.0738 24.3601 40.3418L25.0115 44.25H30.9885L31.6399 40.3418C32.508 40.0739 33.3352 39.7126 34.1097 39.2698L37.3774 41.6039L41.6038 37.3775L39.1165 33.8954C39.4506 33.2005 39.7214 32.4696 39.9216 31.7099L44.25 30.9885V25.0115L39.5445 24.2272C39.3298 23.6554 39.0738 23.1038 38.7802 22.576L41.6039 18.6228L37.3775 14.3964L33.2003 17.3801C32.7595 17.1747 32.3044 16.9946 31.8371 16.8416L30.9885 11.75ZM35.583 28.0002C35.583 32.1883 32.1878 35.5835 27.9997 35.5835C23.8115 35.5835 20.4163 32.1883 20.4163 28.0002C20.4163 23.812 23.8115 20.4168 27.9997 20.4168C32.1878 20.4168 35.583 23.812 35.583 28.0002Z" stroke="#7C7C7C" stroke-width="1.5"/>
</svg>
