<svg width="58" height="56" viewBox="0 0 58 56" fill="none" xmlns="http://www.w3.org/2000/svg">
<path d="M51.2343 42.1521H47.5653V28.5241H51.2343V39.3132M42.8479 45.1595V42.1534H16.6404V52.6364H38.393M42.8485 49.1061L42.8479 52.6364M20.8334 47.918V46.3455H33.9372V47.918H22.8125M19.3658 42.1523V34.8142M39.8077 42.1523V34.8142M23.1124 39.7928V32.1224M36.4531 42.1523V32.1934M24.3012 31.6651L29.744 37.9591L35.4375 31.7478M17.6886 19.0896V14.8963H41.2754V19.0896L21.2193 19.0904M32.3647 4.1512H33.9372M27.1232 4.1512H25.5508L19.261 9.13065V14.8963H40.227V9.13065L35.9637 5.75553M31.8407 7.55819H32.3648V2.84082H27.1233V7.55819H27.6475M31.7756 14.8963C33.0647 14.181 33.9372 12.806 33.9372 11.2273C33.9372 8.91141 32.0598 7.03404 29.744 7.03404C27.4281 7.03404 25.5508 8.91141 25.5508 11.2273C25.5508 12.806 26.4233 14.181 27.7124 14.8963M26.8919 31.1726C23.9768 30.1185 21.813 27.4946 21.4212 24.3218C20.2114 24.1987 19.2609 22.9596 19.2609 21.4491C19.2609 20.4741 19.6569 19.6122 20.2631 19.0904H39.2249C39.8311 19.6122 40.2271 20.4741 40.2271 21.4491C40.2271 22.9596 39.2766 24.1987 38.0668 24.3218C37.675 27.4945 35.5113 30.1183 32.5963 31.1725M26.8919 31.1726C27.1418 31.1556 27.394 31.147 27.6482 31.147H31.8414C32.0951 31.147 32.3469 31.1556 32.5963 31.1725M26.8919 31.1726C21.1656 31.5611 16.641 36.3293 16.641 42.1542H42.8485C42.8485 36.3288 38.3233 31.5604 32.5963 31.1725M8.90698 28.5241V42.0385M4.62427 42.0385V31.6429M31.8407 11.2272C31.8407 12.3851 30.902 13.3238 29.7441 13.3238C28.5862 13.3238 27.6475 12.3851 27.6475 11.2272C27.6475 10.0693 28.5862 9.1306 29.7441 9.1306C30.902 9.1306 31.8407 10.0693 31.8407 11.2272ZM41.7996 23.8068H52.6202L57 25.0933V27.2376L52.6202 28.5241H41.7996V23.8068ZM29.7126 14.8972H29.7754C29.7649 14.8972 29.7545 14.8972 29.744 14.8972C29.7335 14.8972 29.7231 14.8972 29.7126 14.8972ZM36.0337 44.2499H38.6544V45.2828L55.9516 44.7741V49.4914L38.6544 48.9827V50.0156H36.0337V48.9673H33.9372V45.2982H36.0337V44.2499ZM1.00014 23.2825C1.00014 21.042 2.27812 19.0999 4.14489 18.1456V23.2831L6.76564 24.8556L9.38639 23.2831V18.1454C11.2533 19.0997 12.5314 21.0418 12.5314 23.2825C12.5314 26.4668 9.95007 29.0482 6.76579 29.0482C3.58151 29.0482 1.00014 26.4668 1.00014 23.2825ZM12.5313 47.3935C12.5313 50.5778 9.94994 53.1592 6.76566 53.1592C3.58137 53.1592 1 50.5778 1 47.3935C1 44.2092 3.58137 41.6278 6.76566 41.6278C9.94994 41.6278 12.5313 44.2092 12.5313 47.3935ZM9.91039 47.3929L8.33794 50.1165H5.19303L3.62058 47.3929L5.19303 44.6693H8.33794L9.91039 47.3929Z" stroke="#7C7C7C" stroke-width="1.5" stroke-linecap="round"/>
</svg>
