<svg width="58" height="57" viewBox="0 0 58 57" fill="none" xmlns="http://www.w3.org/2000/svg">
<path d="M30.8829 22.2284C30.2326 28.3464 26.9507 33 23 33C18.8829 33 15.4922 27.9462 15.0491 21.4479" stroke="#7C7C7C" stroke-width="1.5" stroke-linecap="round"/>
<path d="M20.5244 14.9809C18.231 13.3593 16.6788 17.1871 15.8987 20.5574C15.6996 21.4176 14.6589 21.6277 14.3949 20.7852C13.1134 16.6959 15.0265 10.9423 19.0359 9.61338C23.5096 8.13064 27.8802 9.43319 29.2318 12.4745C29.3927 12.8366 29.7195 13.1008 30.0823 13.2602C32.1836 14.1838 32.4221 18.186 31.4543 21.5009C31.1935 22.3941 30.1251 22.2306 29.981 21.3113C29.5357 18.4709 28.906 15.2273 27.6692 14.6652C26.3096 14.0472 24.7255 15.2073 23.7568 16.2272C23.4185 16.5834 22.8927 16.6914 22.488 16.4128C22.0485 16.1103 21.4057 15.6485 20.5244 14.9809Z" stroke="#7C7C7C" stroke-width="1.5" stroke-linecap="round"/>
<path d="M23.5858 36H22.4142C21.6332 36 21 36.6332 21 37.4142C21 37.7893 21.149 38.149 21.4142 38.4142L21.5 38.5C21.8201 38.8201 22.2544 39 22.7071 39H23.2929C23.7456 39 24.1799 38.8201 24.5 38.5L24.5858 38.4142C24.851 38.149 25 37.7893 25 37.4142C25 36.6332 24.3668 36 23.5858 36Z" stroke="#7C7C7C" stroke-width="1.5" stroke-linecap="round"/>
<path d="M25.5797 44L24.2737 39.8662C24.1107 39.3505 23.6324 39 23.0916 39V39C22.5091 39 22.0052 39.4056 21.8807 39.9747L21 44" stroke="#7C7C7C" stroke-width="1.5" stroke-linecap="round"/>
<path d="M1 42.1483C1 41.3299 1.4986 40.5941 2.25869 40.2908L13.9183 35.6377C14.8369 35.2711 15.8856 35.6311 16.3855 36.4846L20.4207 43.3759C20.7795 43.9887 21.4364 44.3653 22.1465 44.3653H24.3678C25.0702 44.3653 25.7212 43.9968 26.0826 43.3945L30.2155 36.5087C30.7332 35.6461 31.8112 35.3023 32.7327 35.706L44.8024 40.9927C45.53 41.3114 46 42.0304 46 42.8247V54C46 55.1046 45.1046 56 44 56H3C1.89543 56 1 55.1046 1 54V42.1483Z" stroke="#7C7C7C" stroke-width="1.5" stroke-linecap="round"/>
<path d="M45.462 1.57707C43.4867 3.51905 40.4674 4.27923 38.124 4.48575C36.9757 4.58693 36 5.50057 36 6.65325V13.2575C36 16.106 36.1548 23.1366 46.0076 26.7689C46.4261 26.9231 46.8959 26.9212 47.3126 26.7621C56.8454 23.1213 57 15.9461 57 13.2575V6.38105C57 5.33492 56.1926 4.47965 55.152 4.37275C52.7469 4.12569 49.6708 3.54872 47.7862 1.62788C47.2106 1.04123 46.0481 1.00091 45.462 1.57707Z" stroke="#7C7C7C" stroke-width="1.5" stroke-linecap="round"/>
<path d="M41.421 12.1685C41.421 11.0639 42.3165 10.1685 43.421 10.1685H49.5789C50.6835 10.1685 51.5789 11.0639 51.5789 12.1685L51.5789 17.4C51.5789 18.1911 51.1131 18.9099 50.3684 19.1768C49.3336 19.5476 47.8292 20 46.6492 20C45.4516 20 43.8128 19.534 42.6911 19.1602C41.9166 18.9022 41.421 18.1664 41.421 17.35V12.1685Z" stroke="#7C7C7C" stroke-width="1.5" stroke-linecap="round"/>
<path d="M46.3868 13.8748L46.3868 15.2195" stroke="#7C7C7C" stroke-width="1.5" stroke-linecap="round"/>
<path d="M49.9579 10V8.98432C49.9579 7.07456 48.4097 5.52639 46.4999 5.52643V5.52643C44.5902 5.52646 43.0421 7.0746 43.0421 8.98432V10.0001" stroke="#7C7C7C" stroke-width="1.5" stroke-linecap="round"/>
</svg>
