<svg width="58" height="58" viewBox="0 0 58 58" fill="none" xmlns="http://www.w3.org/2000/svg">
<path d="M29 29L43 15M50 8V3.41421C50 2.52331 48.9229 2.07714 48.2929 2.70711L43.2929 7.70711C43.1054 7.89464 43 8.149 43 8.41421V15M50 8L43 15M50 8H54.5858C55.4767 8 55.9229 9.07714 55.2929 9.70711L50.2929 14.7071C50.1054 14.8946 49.851 15 49.5858 15H43" stroke="#7C7C7C" stroke-width="1.5" stroke-linecap="round"/>
<path d="M54.7566 18C56.2006 21.3768 57 25.0951 57 29C57 44.464 44.464 57 29 57C13.536 57 1 44.464 1 29C1 13.536 13.536 1 29 1C32.6797 1 36.1937 1.70982 39.4123 3" stroke="#7C7C7C" stroke-width="1.5" stroke-linecap="round"/>
<path d="M44.5919 20C46.1234 22.6476 47 25.7214 47 29C47 38.9411 38.9411 47 29 47C19.0589 47 11 38.9411 11 29C11 19.0589 19.0589 11 29 11C31.9753 11 34.7819 11.7219 37.2544 13" stroke="#7C7C7C" stroke-width="1.5" stroke-linecap="round"/>
<path d="M30 22.0709C29.6734 22.0242 29.3395 22 29 22C25.134 22 22 25.134 22 29C22 32.866 25.134 36 29 36C32.866 36 36 32.866 36 29C36 28.5213 35.9519 28.0537 35.8604 27.602" stroke="#7C7C7C" stroke-width="1.5" stroke-linecap="round"/>
<path d="M1 57L6 52" stroke="#7C7C7C" stroke-width="1.5" stroke-linecap="round"/>
<path d="M57 57L52 52" stroke="#7C7C7C" stroke-width="1.5" stroke-linecap="round"/>
</svg>
