<svg width="56" height="57" viewBox="0 0 56 57" fill="none" xmlns="http://www.w3.org/2000/svg">
<path d="M27.2618 1.65068C22.6907 7.66818 13.7209 9.32457 8.12063 9.42844C6.96864 9.44981 6 10.362 6 11.5142V27.497C6 33.4724 6.33171 48.321 27.6832 55.7758C28.1002 55.9214 28.5756 55.9193 28.9911 55.7694C49.6685 48.3058 50 33.1389 50 27.497V11.2438C50 10.1971 49.1923 9.33194 48.153 9.20752C42.37 8.51519 33.1462 6.33999 29.3842 1.66561C28.8709 1.02778 27.7571 0.998721 27.2618 1.65068Z" stroke="#7C7C7C" stroke-width="1.5" stroke-linecap="round"/>
<path d="M18 25.4656C18 24.361 18.8954 23.4656 20 23.4656H36C37.1046 23.4656 38 24.361 38 25.4656L38 37.5872C38 38.7907 37.2826 39.8778 36.1493 40.283C34.1243 41.0069 30.8288 42.0237 28.2938 42.0237C25.7275 42.0237 22.1319 40.9816 19.9401 40.2562C18.7625 39.8665 18 38.754 18 37.5136V25.4656Z" stroke="#7C7C7C" stroke-width="1.5" stroke-linecap="round"/>
<path d="M27.8142 31.5291L27.8142 35.7267" stroke="#7C7C7C" stroke-width="1.5" stroke-linecap="round"/>
<path d="M35.1678 22.9999V22.9999C35.1678 19.134 32.0339 16 28.168 16.0001L27.8343 16.0001C23.9684 16.0001 20.8345 19.1341 20.8345 23V23" stroke="#7C7C7C" stroke-width="1.5" stroke-linecap="round"/>
</svg>
