<svg width="57" height="58" viewBox="0 0 57 58" fill="none" xmlns="http://www.w3.org/2000/svg">
<path d="M24.8889 25L27.2106 22.0149C27.611 21.5001 28.389 21.5001 28.7894 22.0149L35.7778 31M14 39L1.25529 55.3861C0.744398 56.0429 1.21249 57 2.04464 57H53.9554C54.7875 57 55.2556 56.0429 54.7447 55.3861L52.8889 53" stroke="#7C7C7C" stroke-width="1.5" stroke-linecap="round"/>
<path d="M28 18.5V1" stroke="#7C7C7C" stroke-width="1.5" stroke-linecap="round"/>
<path d="M28 15C28.8333 14.5 31.1 13.5 33.5 13.5C36.5 13.5 39 15 42 15C44.07 15 46.7848 14.2561 48.3477 13.7307C48.7428 13.5979 49 13.2238 49 12.807V2.443C49 1.74479 48.3007 1.25519 47.6332 1.46011C46.0418 1.9487 43.782 2.5 42 2.5C39 2.5 36.5 1 33.5 1C31.1 1 28.8333 2 28 2.5" stroke="#7C7C7C" stroke-width="1.5" stroke-linecap="round"/>
<path d="M6.36 36C4.50445 36 3 34.4651 3 32.5714C3 30.6778 4.50445 29.1429 6.36 29.1429V29.1429C6.8308 29.1429 7.29174 28.839 7.41581 28.3848C8.1068 25.8556 10.3807 24 13.08 24C14.8912 24 16.5108 24.8355 17.5892 26.1493C17.877 26.4998 18.3389 26.6683 18.7885 26.6097C18.9822 26.5844 19.1796 26.5714 19.38 26.5714C21.9312 26.5714 24 28.6821 24 31.2857C24 33.8894 21.9312 36 19.38 36C15.04 36 10.7 36 6.36 36Z" stroke="#7C7C7C" stroke-width="1.5" stroke-linecap="round"/>
<path d="M32.48 50C30.0059 50 28 47.9534 28 45.4286C28 42.9037 30.0059 40.8571 32.48 40.8571C32.4896 40.8571 32.4992 40.8572 32.5089 40.8572C33.1214 40.8612 33.7209 40.4658 33.8802 39.8743C34.7924 36.4878 37.831 34 41.44 34C43.9459 34 46.1768 35.1995 47.6118 37.0664C47.8881 37.426 48.3512 37.5958 48.7979 37.5181C49.1367 37.4592 49.4848 37.4286 49.84 37.4286C53.2416 37.4286 56 40.2427 56 43.7143C56 47.1858 53.2416 50 49.84 50C44.0533 50 38.2667 50 32.48 50Z" stroke="#7C7C7C" stroke-width="1.5" stroke-linecap="round"/>
</svg>
