<svg
  width="58"
  height="58"
  viewBox="0 0 58 58"
  fill="none"
  xmlns="http://www.w3.org/2000/svg"
>
<path
    d="M4 7.5V4C4 2.34315 5.34315 1 7 1H49C50.6569 1 52 2.34315 52 4V54C52 55.6569 50.6569 57 49 57H7C5.34315 57 4 55.6569 4 54V14.5M47 10V8C47 6.89543 46.1046 6 45 6H11C9.89543 6 9 6.89543 9 8V50C9 51.1046 9.89543 52 11 52H45C46.1046 52 47 51.1046 47 50V48M31 31H17.7662C16.9889 31 16.5088 30.152 16.9087 29.4855L27.1425 12.4292C27.5309 11.7818 28.4691 11.7818 28.8575 12.4292L39.0913 29.4855C39.4912 30.152 39.0111 31 38.2338 31H36.5M29 19L26 22.6364H30L26.5 27M24 38H42M47 14V18M47 22V36M47 40V44M24 42H42M24 46H42M20 42C20 43.6569 18.6569 45 17 45C15.3431 45 14 43.6569 14 42C14 40.3431 15.3431 39 17 39C18.6569 39 20 40.3431 20 42Z"
    stroke="#7C7C7C"
    stroke-width="1.5"
    stroke-linecap="round"
    stroke-linejoin="round"
  />
</svg>
