<svg width="56" height="58" viewBox="0 0 56 58" fill="none" xmlns="http://www.w3.org/2000/svg">
<circle cx="28" cy="23" r="11" stroke="#7C7C7C" stroke-width="1.5" stroke-linecap="round"/>
<path d="M27.3753 1.49977L23.3543 4.71661C23.1292 4.89671 22.8373 4.97089 22.5535 4.9201L17.7908 4.06789C17.3285 3.99747 16.879 4.25694 16.7088 4.69258L14.8349 9.48898C14.73 9.75751 14.5143 9.9677 14.2431 10.0656L9.6927 11.7089C9.25706 11.8791 8.99758 12.3285 9.068 12.7909L9.84334 17.8816C9.88675 18.1667 9.80502 18.4566 9.61913 18.677L6.49965 22.3753C6.20747 22.7405 6.20747 23.2595 6.49965 23.6247L9.7165 27.6457C9.8966 27.8709 9.97077 28.1627 9.92001 28.4465L9.06802 33.2091C8.9976 33.6715 9.25708 34.1209 9.69272 34.2911L14.4891 36.165C14.7576 36.2699 14.9678 36.4856 15.0658 36.7568L16.7089 41.3074C16.8791 41.7431 17.3285 42.0025 17.7909 41.9321L22.8817 41.1568C23.1667 41.1134 23.4566 41.1951 23.677 41.381L27.3753 44.5003C27.7406 44.7924 28.2595 44.7924 28.6247 44.5003L32.6458 41.2834C32.8709 41.1033 33.1628 41.0292 33.4467 41.08L38.2093 41.9325C38.6716 42.0029 39.1211 41.7434 39.2913 41.3078L41.1652 36.5114C41.2701 36.2429 41.4858 36.0327 41.7569 35.9347L46.3074 34.2914C46.743 34.1212 47.0025 33.6717 46.9321 33.2094L46.1567 28.1186C46.1133 27.8336 46.1951 27.5437 46.3809 27.3233L49.5004 23.6248C49.7926 23.2596 49.7926 22.7407 49.5004 22.3755L46.2836 18.3544C46.1035 18.1292 46.0294 17.8374 46.0801 17.5536L46.9322 12.791C47.0026 12.3286 46.7431 11.8792 46.3075 11.709L41.5111 9.83504C41.2425 9.73012 41.0324 9.51441 40.9344 9.24324L39.2912 4.6926C39.121 4.25696 38.6715 3.99749 38.2092 4.06791L33.1184 4.84325C32.8334 4.88666 32.5435 4.80494 32.3231 4.61907L28.6247 1.49977C28.2595 1.2076 27.7406 1.2076 27.3753 1.49977Z" stroke="#7C7C7C" stroke-width="1.5" stroke-linecap="round"/>
<path d="M24 23.5L27 26.5L33 20.5" stroke="#7C7C7C" stroke-width="1.5" stroke-linecap="round" stroke-linejoin="round"/>
<path d="M10.5 41L4.98195 50.5575C4.5733 51.2653 5.14021 52.1378 5.95298 52.052L10.04 51.6205C10.4711 51.575 10.8825 51.8125 11.0587 52.2087L12.7285 55.9638C13.0605 56.7106 14.0996 56.7653 14.5082 56.0575L19.0263 48.2319" stroke="#7C7C7C" stroke-width="1.5" stroke-linecap="round"/>
<path d="M45.5264 41L51.0444 50.5575C51.4531 51.2653 50.8862 52.1378 50.0734 52.052L45.9864 51.6205C45.5552 51.575 45.1438 51.8125 44.9677 52.2087L43.2979 55.9638C42.9658 56.7106 41.9268 56.7653 41.5181 56.0575L37 48.2319" stroke="#7C7C7C" stroke-width="1.5" stroke-linecap="round"/>
</svg>
