<svg width="58" height="58" viewBox="0 0 58 58" fill="none" xmlns="http://www.w3.org/2000/svg">
<path d="M56.6544 6.66667C56.8791 7.40486 57 8.18832 57 9C57 13.4183 53.4183 17 49 17C44.5817 17 41 13.4183 41 9C41 4.58172 44.5817 1 49 1C50.3216 1 51.5683 1.32045 52.6667 1.88788M46.3333 8.24638L48.1155 9.8994C48.3771 10.1421 48.7834 10.1357 49.0373 9.88494L55.3333 3.66667" stroke="#7C7C7C" stroke-width="1.5" stroke-linecap="round"/>
<path d="M15 43.4286L11.0625 40M15 43.4286H12.0625C11.5102 43.4286 11.0625 42.9809 11.0625 42.4286V40M15 43.4286V56C15 56.5523 14.5523 57 14 57H2C1.44772 57 1 56.5523 1 56V55.5536M11.0625 40H2C1.44772 40 1 40.4477 1 41V52.5893" stroke="#7C7C7C" stroke-width="1.5" stroke-linecap="round"/>
<path d="M4 44H8" stroke="#7C7C7C" stroke-width="1.5" stroke-linecap="round" stroke-linejoin="round"/>
<path d="M4 47H12" stroke="#7C7C7C" stroke-width="1.5" stroke-linecap="round" stroke-linejoin="round"/>
<path d="M4 50H12" stroke="#7C7C7C" stroke-width="1.5" stroke-linecap="round" stroke-linejoin="round"/>
<path d="M4 53H12" stroke="#7C7C7C" stroke-width="1.5" stroke-linecap="round" stroke-linejoin="round"/>
<path d="M7.38947 1.8356C7.46983 1.35341 7.88702 1 8.37586 1H9.62414C10.113 1 10.5302 1.35341 10.6105 1.8356L10.8286 3.14384C10.8657 3.36685 11.0257 3.54868 11.2358 3.632C11.4393 3.71267 11.6703 3.69307 11.8484 3.56585L12.9273 2.79522C13.3251 2.51109 13.87 2.55618 14.2156 2.90184L15.1073 3.79355C15.4478 4.13399 15.4922 4.67067 15.2123 5.06245L14.5797 5.94811C14.4133 6.18116 14.399 6.48651 14.5185 6.74679C14.6289 6.98733 14.8442 7.16944 15.1053 7.21296L16.1644 7.38947C16.6466 7.46983 17 7.88702 17 8.37586V9.72847C17 10.1571 16.6901 10.5229 16.2673 10.5934L15.4606 10.7278C15.1006 10.7878 14.8145 11.0584 14.6868 11.4003C14.5683 11.7172 14.595 12.0734 14.7916 12.3488L15.2513 12.9923C15.5086 13.3526 15.4678 13.8461 15.1547 14.1591L14.1001 15.2137C13.8211 15.4928 13.3812 15.5292 13.0601 15.2998L12.5582 14.9413C12.2228 14.7017 11.7843 14.6857 11.4059 14.8492C11.0392 15.0078 10.7505 15.3248 10.6848 15.7189L10.5849 16.3182C10.5193 16.7117 10.1789 17 9.78011 17H8.21989C7.82106 17 7.48068 16.7117 7.41511 16.3182L7.31523 15.7189C7.24954 15.3248 6.96079 15.0078 6.59402 14.8492C6.2156 14.6856 5.7771 14.7017 5.44163 14.9413L4.9399 15.2997C4.6188 15.5291 4.17894 15.4927 3.89992 15.2136L2.84527 14.159C2.53221 13.8459 2.49137 13.3524 2.7487 12.9922L3.20835 12.3487C3.40501 12.0733 3.43167 11.7172 3.31322 11.4002C3.18547 11.0584 2.89939 10.7878 2.53941 10.7278L1.73269 10.5934C1.30989 10.5229 1 10.1571 1 9.72847V8.37586C1 7.88702 1.35341 7.46983 1.8356 7.38947L2.89456 7.21298C3.15571 7.16945 3.37108 6.98729 3.48154 6.74667C3.60106 6.48631 3.58684 6.18086 3.42032 5.94773L2.78786 5.06229C2.50805 4.67056 2.55246 4.13396 2.89286 3.79356L3.78465 2.90178C4.13031 2.55612 4.67521 2.51102 5.07299 2.79515L6.15193 3.56582C6.32997 3.693 6.5609 3.7126 6.76429 3.63196C6.97439 3.54866 7.13425 3.36689 7.17141 3.14396L7.38947 1.8356Z" stroke="#7C7C7C" stroke-width="1.5"/>
<path d="M12.5 9C12.5 10.933 10.933 12.5 9 12.5C7.067 12.5 5.5 10.933 5.5 9C5.5 7.067 7.067 5.5 9 5.5C10.933 5.5 12.5 7.067 12.5 9Z" stroke="#7C7C7C" stroke-width="1.5"/>
<circle cx="49" cy="49" r="8" stroke="#7C7C7C" stroke-width="1.5" stroke-linecap="round"/>
<path d="M45 49H53M53 49L50 52M53 49L50 46" stroke="#7C7C7C" stroke-width="1.5" stroke-linecap="round" stroke-linejoin="round"/>
<circle cx="29" cy="24" r="4" stroke="#7C7C7C" stroke-width="1.5" stroke-linecap="round"/>
<path d="M21 36C21 31.5817 24.5817 28 29 28V28C33.4183 28 37 31.5817 37 36V37.4444C37 37.7513 36.7513 38 36.4444 38H21.5556C21.2487 38 21 37.7513 21 37.4444V36Z" stroke="#7C7C7C" stroke-width="1.5" stroke-linecap="round"/>
<path d="M20 7H38M51 20V38M7 37V19.5M18.5 51H38" stroke="#7C7C7C" stroke-width="1.5" stroke-linecap="round"/>
</svg>
