<svg
  width="58"
  height="58"
  viewBox="0 0 58 58"
  fill="none"
  xmlns="http://www.w3.org/2000/svg"
>
<path
    d="M57 33V11C57 9.34315 55.6569 8 54 8H4C2.34315 8 1 9.34315 1 11V45C1 46.6569 2.34314 48 4 48H54C55.6569 48 57 46.6569 57 45V40.5M22 13H8C6.89543 13 6 13.8954 6 15V27C6 28.1046 6.89543 29 8 29H29C30.1046 29 31 28.1046 31 27V15C31 13.8954 30.1046 13 29 13H27M40 14H47M40 28H47M38 17.5H49M38 24.5H49M36 21H51M7 34H10.2857M13.5714 34H16.8571M20.1429 34H23.4286M26.7143 34H30M7 38H10.2857M13.5714 38H16.8571M20.1429 38H23.4286M26.7143 38H30M13.5714 42H16.8571M20.1428 42H23.4286M47 37.5C47 39.433 45.433 41 43.5 41C41.567 41 40 39.433 40 37.5C40 35.567 41.567 34 43.5 34C45.433 34 47 35.567 47 37.5Z"
    stroke="#7C7C7C"
    stroke-width="1.5"
    stroke-linecap="round"
  />
</svg>
