<svg width="58" height="58" viewBox="0 0 58 58" fill="none" xmlns="http://www.w3.org/2000/svg">
<path d="M41.8062 46.1048V7.10092H49.6201V34.1204M38.7674 48.9377V1H1V57H20.1008M33.1238 41.5289V51.5524H21.837M33.1238 37.6067V27.1477H21.837M17.93 51.5524H7.07732V41.5289M7.07732 37.6067V27.1477H17.93M20.0151 29.3265V49.373M11.4184 39.4358L30.9532 39.4358M41.8062 10.6733H43.9767M41.8062 14.16H43.9767M41.8062 17.6461H43.9767M41.8062 24.619H43.9767M41.8062 28.1051H43.9767M41.8062 31.5918H43.9767M41.8062 38.5646H43.9767M41.8062 42.0508H43.9767M41.8062 21.1323H46.1472M41.8062 35.078H46.1472M53.093 11.0233H57M53.093 11.0233V31.07M53.093 11.0233L55.0465 5.79379L57 11.0233M57 11.0233V31.07M17.93 25.4044H21.837V29.3265H17.93V25.4044ZM17.93 49.3733H21.837V53.2955H17.93V49.3733ZM30.9532 37.6067H34.8602V41.5289H30.9532V37.6067ZM5.34087 37.6067H9.24784V41.5289H5.34087V37.6067ZM31.3876 56.782L56.7829 31.0699V56.782H31.3876ZM53.3101 53.2958V40.8756L40.938 53.2958H53.3101Z" stroke="#7C7C7C" stroke-width="1.5" stroke-linecap="round"/>
<path d="M20.101 5.79419H7.07739V22.3545H20.101M20.101 5.79419H33.1247V22.3545H20.101M20.101 5.79419V22.3545" stroke="#7C7C7C" stroke-width="1.5" stroke-linecap="round" stroke-dasharray="4 6"/>
</svg>
