<svg width="56" height="58" viewBox="0 0 56 58" fill="none" xmlns="http://www.w3.org/2000/svg">
<path d="M6.01978 57H49.9802V1H19.1528M19.1528 1L6.01978 13.3371V48.2447M19.1528 1V13.3371H10.1985M37.4492 5.57166L46.2045 5.57165M31.0815 31.5298H46.2044M31.0815 38.673H46.2044M23.918 8.34729L46.2043 8.34729M23.918 11.3473L46.2043 11.3473M31.0815 35.1014H46.2044M31.0815 42.2445H46.2044M31.0815 46.2445H46.2044M14.2767 30.7342H19.6607C21.8332 30.7342 23.4154 31.192 24.4072 32.1076C25.4147 33.0231 25.9185 34.2821 25.9185 35.8844C25.9185 36.8327 25.7138 37.7237 25.3045 38.5576C24.8952 39.3914 24.2104 40.0617 23.2501 40.5686C22.3055 41.0754 21.0146 41.1572 19.3773 41.1572H17.8424V43.2418H21.479V45.6207H17.8212L17.8424 48.2448H14.2767V45.6207H12.3875V43.2418H14.2767V41.1572H12.3875V38.2878H14.2767V30.7342ZM19.0231 38.2878C19.7001 38.2878 20.2826 38.2142 20.7706 38.0671C21.2586 37.9036 21.6364 37.6501 21.9041 37.3068C22.1717 36.9635 22.3055 36.5302 22.3055 36.007C22.3055 35.2549 22.0772 34.699 21.6207 34.3393C21.1642 33.9633 20.4479 33.7752 19.4718 33.7752H17.8424V38.2878H19.0231Z" stroke="#7C7C7C" stroke-width="1.5"/>
</svg>
