<svg width="56" height="58" viewBox="0 0 56 58" fill="none" xmlns="http://www.w3.org/2000/svg">
<path d="M37.3825 3.97864H44.0846C45.1892 3.97864 46.0846 4.87407 46.0846 5.97864V25.4467M7.95697 53.234V53.8084C7.95697 54.913 8.8524 55.8084 9.95697 55.8084H29.7868" stroke="#7C7C7C" stroke-width="1.5" stroke-linecap="round"/>
<path d="M32.9782 39.936C32.9782 38.8315 33.8736 37.936 34.9782 37.936H52.425C53.5296 37.936 54.425 38.8315 54.425 39.936L54.425 53.1362C54.425 53.9496 53.9331 54.681 53.1677 54.9564C51.1396 55.6861 47.0653 56.9999 44.0167 56.9999C40.9392 56.9999 36.4817 55.6612 34.2922 54.9358C33.4974 54.6725 32.9782 53.9254 32.9782 53.0881V39.936Z" stroke="#7C7C7C" stroke-width="1.5" stroke-linecap="round"/>
<path d="M43.7012 45.0851L43.7012 49.851" stroke="#7C7C7C" stroke-width="1.5" stroke-linecap="round"/>
<path d="M49.6593 37.5L49.6593 34.0213C49.6593 31.2599 47.4207 29.0213 44.6592 29.0213L42.7443 29.0214C39.983 29.0214 37.7444 31.26 37.7444 34.0214L37.7444 37.5" stroke="#7C7C7C" stroke-width="1.5" stroke-linecap="round"/>
<path d="M40.1277 10.5319L29.4043 1M40.1277 10.5319H31.4043C30.2997 10.5319 29.4043 9.63649 29.4043 8.53192V1M40.1277 10.5319V25.4468M29.4043 1H4C2.89543 1 2 1.89543 2 3V48.0426C2 49.1471 2.89543 50.0426 4 50.0426H28.5957" stroke="#7C7C7C" stroke-width="1.5" stroke-linecap="round"/>
<path d="M7.95776 18.8723H34.1705" stroke="#7C7C7C" stroke-width="1.5" stroke-linecap="round"/>
<path d="M7.95776 26.0214H34.1705" stroke="#7C7C7C" stroke-width="1.5" stroke-linecap="round"/>
<path d="M7.95776 33.1702H34.1705" stroke="#7C7C7C" stroke-width="1.5" stroke-linecap="round"/>
<path d="M7.95776 40.3192H28.5961" stroke="#7C7C7C" stroke-width="1.5" stroke-linecap="round"/>
</svg>
