<svg
  width="58"
  height="58"
  viewBox="0 0 58 58"
  fill="none"
  xmlns="http://www.w3.org/2000/svg"
>
<path
    d="M57 19.7922V15.2669C57 14.7115 56.5418 14.2613 55.9767 14.2613H52.395C51.8298 14.2613 51.3716 14.7115 51.3716 15.2669V55.9944C51.3716 56.5498 51.8298 57 52.395 57H55.9767C56.5418 57 57 56.5498 57 55.9944V26.8315M51.3716 26.3287H46.7666C46.2014 26.3287 45.7433 26.7789 45.7433 27.3343V44.4298M37.2928 33.368H45.7433M45.7433 38.3961L37.2928 38.3961M32.4194 16.9801C32.7473 17.6432 32.9515 18.5026 32.9515 19.2894C32.9515 22.0663 30.6607 24.3174 27.8348 24.3174C25.7366 24.3174 23.7896 23.2758 23 21.5M28 24.3174L30.6921 32.2674M31 23.2402L33.8048 31.369M28.3465 11.5247L36.5848 7.67594C37.1134 7.42898 37.3239 6.79741 37.0464 6.29097L34.4371 1.52904C34.1783 1.05668 33.5877 0.867157 33.095 1.09837L1.5823 15.8886C0.813652 16.2493 0.803799 17.3211 1.56569 17.6955L4.54313 19.1584C4.71721 19.2439 4.86286 19.3765 4.96299 19.5405L5.86675 21.0206C6.13785 21.4647 6.70774 21.6338 7.18363 21.4115L23.565 13.7585M9.92637 20.295L12.5425 25.4366C12.7938 25.9304 13.4033 26.1328 13.9079 25.8899L37.1416 14.7073C37.6521 14.4615 37.861 13.8541 37.6068 13.3544L35.1035 8.36796M10.7417 21.8973L9.76607 22.385C9.28144 22.6231 9.06969 23.1912 9.28313 23.6806L10.0105 25.3484C10.2425 25.8802 10.8821 26.1105 11.4088 25.8517L12.4634 25.2811M38.0682 35.882C38.0682 38.3813 36.0065 40.4073 33.4632 40.4073C30.9199 40.4073 28.8582 38.3813 28.8582 35.882C28.8582 33.3828 30.9199 31.3568 33.4632 31.3568C36.0065 31.3568 38.0682 33.3828 38.0682 35.882Z"
    stroke="#7C7C7C"
    stroke-width="1.5"
    stroke-linecap="round"
    stroke-linejoin="round"
  />
</svg>
