<svg width="56" height="58" viewBox="0 0 56 58" fill="none" xmlns="http://www.w3.org/2000/svg">
<path d="M9.9536 5.61865H3.60309V11.9692L9.9536 11.9692V5.61865ZM9.9536 5.61865V34.7815L6.77834 41.4124L3.60309 34.7815V14.5671M3.60309 34.0619H9.9536M6.06696 35.0619V11.9691M16.6031 57.0001V5.61865H43.1598M21.2216 57.0001H52.3969V11.6805L46.335 5.61865V11.6805H50.0876M23.8094 3.30933V10.8145H19.7681V3.30933M42.0001 21V18H28.0001V21H39.6667M40.6031 24H47.6031M21.1031 24H38.6031M28.1031 30H21.1031M47.6031 30H30.1031M47.6031 27H21.1031M40.6031 33H28.6031M31.6031 47H20.6031M27.6031 50H20.6031M19.7681 1H26.1186V5.61855H19.7681V1ZM48.0001 48C48.0001 50.2091 46.2092 52 44.0001 52C41.7909 52 40.0001 50.2091 40.0001 48C40.0001 45.7909 41.7909 44 44.0001 44C46.2092 44 48.0001 45.7909 48.0001 48ZM46.0001 48C46.0001 49.1046 45.1046 50 44.0001 50C42.8955 50 42.0001 49.1046 42.0001 48C42.0001 46.8954 42.8955 46 44.0001 46C45.1046 46 46.0001 46.8954 46.0001 48Z" stroke="#7C7C7C" stroke-width="1.5"/>
</svg>
