<svg
  width="58"
  height="58"
  viewBox="0 0 58 58"
  fill="none"
  xmlns="http://www.w3.org/2000/svg"
>
<path
    d="M3 17C4.10457 17 5 16.1046 5 15C5 13.8954 4.10457 13 3 13C1.89543 13 1 13.8954 1 15C1 16.1046 1.89543 17 3 17ZM3 17V27.5L13 31.875M13 13C14.1046 13 15 12.1046 15 11C15 9.89543 14.1046 9 13 9C11.8954 9 11 9.89543 11 11C11 12.1046 11.8954 13 13 13ZM13 13V31.875M21 5C22.1046 5 23 4.10457 23 3C23 1.89543 22.1046 1 21 1C19.8954 1 19 1.89543 19 3C19 4.10457 19.8954 5 21 5ZM21 5V17.75M30.5 9C31.6046 9 32.5 8.10457 32.5 7C32.5 5.89543 31.6046 5 30.5 5C29.3954 5 28.5 5.89543 28.5 7C28.5 8.10457 29.3954 9 30.5 9ZM30.5 9V27M37 20C38.1046 20 39 19.1046 39 18C39 16.8954 38.1046 16 37 16C35.8954 16 35 16.8954 35 18C35 19.1046 35.8954 20 37 20ZM37 20V24L30.5 27M44.5 14C45.6046 14 46.5 13.1046 46.5 12C46.5 10.8954 45.6046 10 44.5 10C43.3954 10 42.5 10.8954 42.5 12C42.5 13.1046 43.3954 14 44.5 14ZM44.5 14V31.5938M55 12C56.1046 12 57 11.1046 57 10C57 8.89543 56.1046 8 55 8C53.8954 8 53 8.89543 53 10C53 11.1046 53.8954 12 55 12ZM55 12V27L44.5 31.5938M13 31.875L30.5 39.5312M13 31.875V41L18 43.5M30.5 39.5312L35 41.5V47.0714M30.5 39.5312V31M30.5 39.5312V49M35 47.0714V57M35 47.0714L30.5 49M35 47.0714L39 45.3571M26 57V47L22 45.1538M30.5 31L21 26.5V22.5M30.5 31V27M30.5 49V57M39 45.3571L44.5 43V41M39 45.3571V34L44.5 31.5938M39 45.3571V57M44.5 31.5938V36.5"
    stroke="#7C7C7C"
    stroke-width="1.5"
    stroke-linecap="round"
    stroke-linejoin="round"
  />
</svg>
