<svg
  width="58"
  height="58"
  viewBox="0 0 58 58"
  fill="none"
  xmlns="http://www.w3.org/2000/svg"
>
<path
    d="M10.5842 34.2534C10.7048 33.5301 11.3305 33 12.0638 33H13.9362C14.6695 33 15.2952 33.5301 15.4158 34.2534L15.7429 36.2158C15.7986 36.5503 16.0385 36.823 16.3537 36.948C16.6589 37.069 17.0054 37.0396 17.2726 36.8488L18.8909 35.6928C19.4876 35.2666 20.3049 35.3343 20.8234 35.8528L22.161 37.1903C22.6717 37.701 22.7383 38.506 22.3185 39.0937L21.3696 40.4222C21.1199 40.7717 21.0986 41.2298 21.2778 41.6202C21.4434 41.981 21.7664 42.2542 22.158 42.3194L23.7466 42.5842C24.4699 42.7048 25 43.3305 25 44.0638V46.0927C25 46.7357 24.5352 47.2844 23.901 47.3901L22.6909 47.5917C22.1509 47.6817 21.7218 48.0876 21.5301 48.6004C21.3525 49.0758 21.3924 49.6102 21.6875 50.0232L22.3769 50.9884C22.7629 51.5288 22.7017 52.2691 22.2321 52.7387L20.6502 54.3206C20.2316 54.7392 19.5718 54.7938 19.0901 54.4497L18.3373 53.912C17.8342 53.5526 17.1765 53.5285 16.6089 53.7739C16.0588 54.0117 15.6257 54.4872 15.5272 55.0783L15.3773 55.9774C15.279 56.5675 14.7684 57 14.1702 57H11.8298C11.2316 57 10.721 56.5675 10.6227 55.9774L10.4728 55.0784C10.3743 54.4872 9.94118 54.0117 9.39103 53.7738C8.8234 53.5285 8.16564 53.5525 7.66244 53.912L6.90984 54.4496C6.42819 54.7936 5.76841 54.739 5.34988 54.3204L3.7679 52.7385C3.29832 52.2689 3.23706 51.5286 3.62305 50.9883L4.31253 50.023C4.60751 49.61 4.6475 49.0757 4.46984 48.6003C4.2782 48.0876 3.84909 47.6817 3.30912 47.5917L2.09904 47.3901C1.46483 47.2844 1 46.7357 1 46.0927V44.0638C1 43.3305 1.53012 42.7048 2.2534 42.5842L3.84183 42.3195C4.23357 42.2542 4.55662 41.9809 4.72231 41.62C4.90159 41.2295 4.88025 40.7713 4.63048 40.4216L3.68179 39.0934C3.26208 38.5058 3.3287 37.7009 3.8393 37.1903L5.17697 35.8527C5.69546 35.3342 6.51281 35.2665 7.10949 35.6927L8.7279 36.8487C8.99496 37.0395 9.34135 37.0689 9.64644 36.9479C9.96159 36.823 10.2014 36.5503 10.2571 36.2159L10.5842 34.2534Z"
    stroke="#7C7C7C"
    stroke-width="1.5"
  />
<path
    d="M18.25 45C18.25 47.8995 15.8995 50.25 13 50.25C10.1005 50.25 7.75 47.8995 7.75 45C7.75 42.1005 10.1005 39.75 13 39.75C15.8995 39.75 18.25 42.1005 18.25 45Z"
    stroke="#7C7C7C"
    stroke-width="1.5"
  />
<path
    d="M47.3895 21.8356C47.4698 21.3534 47.887 21 48.3759 21H49.6241C50.113 21 50.5302 21.3534 50.6105 21.8356L50.8286 23.1438C50.8657 23.3668 51.0257 23.5487 51.2358 23.632C51.4393 23.7127 51.6703 23.6931 51.8484 23.5659L52.9273 22.7952C53.3251 22.5111 53.87 22.5562 54.2156 22.9018L55.1073 23.7936C55.4478 24.134 55.4922 24.6707 55.2123 25.0624L54.5797 25.9481C54.4133 26.1812 54.399 26.4865 54.5185 26.7468C54.6289 26.9873 54.8442 27.1694 55.1053 27.213L56.1644 27.3895C56.6466 27.4698 57 27.887 57 28.3759V29.7285C57 30.1571 56.6901 30.5229 56.2673 30.5934L55.4606 30.7278C55.1006 30.7878 54.8145 31.0584 54.6868 31.4003C54.5683 31.7172 54.595 32.0734 54.7916 32.3488L55.2513 32.9923C55.5086 33.3526 55.4678 33.8461 55.1547 34.1591L54.1001 35.2137C53.8211 35.4928 53.3812 35.5292 53.0601 35.2998L52.5582 34.9413C52.2228 34.7017 51.7843 34.6857 51.4059 34.8492C51.0392 35.0078 50.7505 35.3248 50.6848 35.7189L50.5849 36.3182C50.5193 36.7117 50.1789 37 49.7801 37H48.2199C47.8211 37 47.4807 36.7117 47.4151 36.3182L47.3152 35.7189C47.2495 35.3248 46.9608 35.0078 46.594 34.8492C46.2156 34.6856 45.7771 34.7017 45.4416 34.9413L44.9399 35.2997C44.6188 35.5291 44.1789 35.4927 43.8999 35.2136L42.8453 34.159C42.5322 33.8459 42.4914 33.3524 42.7487 32.9922L43.2084 32.3487C43.405 32.0733 43.4317 31.7172 43.3132 31.4002C43.1855 31.0584 42.8994 30.7878 42.5394 30.7278L41.7327 30.5934C41.3099 30.5229 41 30.1571 41 29.7285V28.3759C41 27.887 41.3534 27.4698 41.8356 27.3895L42.8946 27.213C43.1557 27.1694 43.3711 26.9873 43.4815 26.7467C43.6011 26.4863 43.5868 26.1809 43.4203 25.9477L42.7879 25.0623C42.5081 24.6706 42.5525 24.134 42.8929 23.7936L43.7846 22.9018C44.1303 22.5561 44.6752 22.511 45.073 22.7952L46.1519 23.5658C46.33 23.693 46.5609 23.7126 46.7643 23.632C46.9744 23.5487 47.1343 23.3669 47.1714 23.144L47.3895 21.8356Z"
    stroke="#7C7C7C"
    stroke-width="1.5"
  />
<path
    d="M52.5 29C52.5 30.933 50.933 32.5 49 32.5C47.067 32.5 45.5 30.933 45.5 29C45.5 27.067 47.067 25.5 49 25.5C50.933 25.5 52.5 27.067 52.5 29Z"
    stroke="#7C7C7C"
    stroke-width="1.5"
  />
<path
    d="M22.2809 9.82609H24.7978C25.4928 9.82609 26.0562 9.26158 26.0562 8.56522V3.52174C26.0562 2.82538 25.4928 2.26087 24.7978 2.26087H22.2809C21.5859 2.26087 21.0225 2.82538 21.0225 3.52174V8.56522C21.0225 9.26158 21.5859 9.82609 22.2809 9.82609ZM22.2809 9.82609V14.8696C22.2809 15.5659 22.8443 16.1304 23.5393 16.1304H42.4157M31.0899 11.087V2.26087C31.0899 1.56451 30.5265 1 29.8315 1H27.3146C26.6196 1 26.0562 1.56451 26.0562 2.26087V11.087C26.0562 11.7833 26.6196 12.3478 27.3146 12.3478H29.8315C30.5265 12.3478 31.0899 11.7833 31.0899 11.087ZM31.0899 11.087V3.52174C31.0899 2.82538 31.6533 2.26087 32.3483 2.26087H34.8652C35.5602 2.26087 36.1236 2.82538 36.1236 3.52174V11.087C36.1236 11.7833 35.5602 12.3478 34.8652 12.3478H32.3483C31.6533 12.3478 31.0899 11.7833 31.0899 11.087ZM11.6966 15.5L1 11.7174L11.6966 7.93478M51.9663 16.1304V11.087M41.1573 7.30435H55.7416C56.4366 7.30435 57 7.86886 57 8.56522V14.8696C57 15.5659 56.4366 16.1304 55.7416 16.1304H42.4157M17.2472 7.30435H12.9551C12.26 7.30435 11.6966 7.86886 11.6966 8.56522V14.8696C11.6966 15.5659 12.26 16.1304 12.9551 16.1304H17.2472M17.2472 7.30435V16.1304M17.2472 7.30435C17.2472 6.60799 17.8106 6.04348 18.5056 6.04348H21.0225M42.4157 16.1304V20.8279M17.2472 16.1304V18.1353C17.2472 20.141 17.9092 22.8182 19 24.5C21.2702 28 24.2744 30 28.5 30H37.1573M24.7978 16.1304C26.0562 17 27.3146 18.1353 28.5 20.8279M37.382 11.087H39.8989C40.5939 11.087 41.1573 10.5224 41.1573 9.82609V6.04348C41.1573 5.34712 40.5939 4.78261 39.8989 4.78261H37.382C36.687 4.78261 36.1236 5.34712 36.1236 6.04348V9.82609C36.1236 10.5224 36.687 11.087 37.382 11.087Z"
    stroke="#7C7C7C"
    stroke-width="1.5"
    stroke-linecap="round"
    stroke-linejoin="round"
  />
<path
    d="M19 33V32C19 30.8954 19.8954 30 21 30H37.5M29.5 51H43.5M47 45V40"
    stroke="#7C7C7C"
    stroke-width="1.5"
    stroke-linecap="round"
    stroke-linejoin="round"
  />
<circle cx="47" cy="51" r="3" stroke="#7C7C7C" stroke-width="1.5" />
</svg>
