<svg
  width="58"
  height="58"
  viewBox="0 0 58 58"
  fill="none"
  xmlns="http://www.w3.org/2000/svg"
>
<path
    d="M17.1537 32.6296C16.0972 30.6153 15.4995 28.322 15.4995 25.8889C15.4995 17.8705 21.9912 11.3704 29.999 11.3704C38.0069 11.3704 44.4985 17.8705 44.4985 25.8889C44.4985 32.4366 40.0901 37.996 34.1417 39.8062M20.6779 37.0103C22.1824 38.2759 23.9229 39.2338 25.8563 39.8062M39.8817 22.7778C40.1897 23.7599 40.3558 24.805 40.3558 25.8889M29.999 15.5185C33.2366 15.5185 36.1271 17.006 38.0263 19.3357M34.1417 39.8062V46.6296M34.1417 39.8062C32.8058 40.2127 31.4677 40.4074 29.999 40.4074C28.5685 40.4074 27.1617 40.1927 25.8563 39.8062M25.8563 46.6296V39.8062M38.2845 57H40.3558C41.4998 57 42.4272 56.0714 42.4272 54.9259V51.8148M32.0704 57H19.6422C18.4983 57 17.5709 56.0714 17.5709 54.9259V48.7037C17.5709 47.5582 18.4983 46.6296 19.6422 46.6296H40.3558C41.4998 46.6296 42.4272 47.5582 42.4272 48.7037V51.8148M50.3892 29.5268L50.3701 24.7463L48.5764 26.8313L48 22M52.784 32.0195L56.4259 28.9284L53.6778 28.8955L57 25.3446M42.4272 51.8148C44.1102 49.8375 47.7092 44.373 48.6413 38.3333M48.6413 38.3333C49.7852 38.3333 50.7126 37.4047 50.7126 36.2593C50.7126 35.1138 49.7852 34.1852 48.6413 34.1852C47.4973 34.1852 46.5699 35.1138 46.5699 36.2593C46.5699 37.4047 47.4973 38.3333 48.6413 38.3333ZM15.726 1.0575C15.6161 1.15531 16.483 3.55163 17.1302 4.99431C17.4563 5.71676 17.3882 9.07767 16.886 8C16.4586 7.08304 16.1533 6.68151 15.6527 6.13134C14.9812 5.38554 14.798 5.22661 14.1265 4.81092C13.2351 4.27297 12.1362 3.99177 11.2327 4.1018C9.40115 4.29742 8.72959 4.34632 7.32543 4.3341C4.56594 4.30965 3.01526 3.63721 1.59888 1.83997C1.47678 1.6688 1.34247 1.55877 1.30584 1.59545C1.257 1.65658 1.35468 2.52463 1.52562 3.5883C1.74541 4.87205 2.56348 6.85268 3.07631 7.34173C3.22283 7.47621 3.29609 7.58625 3.23504 7.58625C2.942 7.58625 4.18743 8.33204 4.8712 8.56434C7.43532 9.43239 9.03485 10.8995 9.03485 12.4278C9.03485 13.1614 8.7418 13.577 8.03362 13.8827C6.94692 14.3351 5.8358 13.9805 4.7491 12.8313C4.10196 12.1588 3.94323 11.8654 3.47924 10.545C3.38156 10.2638 2.11171 11.4864 1.67214 12.2811C0.878487 13.7238 0.780806 15.3865 1.41573 16.6947C1.84309 17.5505 2.89316 18.5653 4.21185 19.3722C6.91029 21.0228 7.30101 21.3406 7.70394 22.2209C8.11909 23.1379 7.99699 23.8959 7.37427 24.3238C7.00797 24.5806 6.86145 24.605 6.01895 24.5561C5.46949 24.5194 4.65141 24.3483 4.10196 24.1649C3.12515 23.847 2.91758 23.8348 3.13736 24.116C3.21062 24.2015 3.46703 24.6906 3.72344 25.1919C3.97986 25.6931 4.49268 26.5245 4.8712 27.0258C5.61601 28.0405 7.08123 29.5444 7.45974 29.6544C7.58184 29.7033 7.69173 29.7767 7.69173 29.8256C7.69173 29.9967 8.87612 30.5714 9.97503 30.9504C10.964 31.2805 12.5758 31.5494 12.5758 31.3783C12.5758 31.3416 12.4659 30.9137 12.3438 30.4246C12.0263 29.2632 11.9775 28.9331 11.8554 27.3314C11.5501 23.4435 12.4293 19.7757 14.4806 16.3646C14.737 15.9367 14.9812 15.5699 15.0178 15.5332C15.0544 15.4965 15.262 15.2276 15.4696 14.9219C16.3609 13.626 18.2779 11.8776 20.0484 10.7161C21.1107 10.0315 23.0276 9.07784 23.6015 8.9678C24.0167 8.88222 24.0167 8.69882 23.6382 7.64738C23.2963 6.69374 22.9178 6.13134 21.8799 5.00654C21.1595 4.22406 19.56 2.94032 19.3036 2.94032C19.2425 2.94032 19.1692 2.89142 19.1448 2.84251C19.096 2.70802 18.107 2.12117 16.886 1.49764C15.8237 0.947463 15.8237 0.947463 15.726 1.0575ZM34.1417 25.8889C34.1417 28.1798 32.287 30.037 29.999 30.037C27.7111 30.037 25.8563 28.1798 25.8563 25.8889C25.8563 23.5979 27.7111 21.7407 29.999 21.7407C32.287 21.7407 34.1417 23.5979 34.1417 25.8889Z"
    stroke="#7C7C7C"
    stroke-width="1.5"
    stroke-linecap="round"
    stroke-linejoin="round"
  />
</svg>
