<svg width="57" height="58" viewBox="0 0 57 58" fill="none" xmlns="http://www.w3.org/2000/svg">
<path d="M42.7373 41.382C42.7373 39.7149 41.2232 38.2035 38.7427 38.0447C35.1716 37.816 33.4309 37.7782 28.4009 37.2869C26.1492 37.0669 24.0134 36.2125 21.8486 35.5549C17.7817 34.3194 14.302 35.3477 13 36.6814V54.974C14.4795 53.3069 17.9818 52.3239 19.6043 52.7323C21.8057 53.2865 27.2029 55.8338 31.1974 54.7224C35.192 53.6109 49.8387 45.8278 54.2771 42.4935C57.8233 39.8294 55.3776 35 51.6141 36.9364C49.3802 38.0858 44.8085 40.4559 42.7373 41.382ZM42.7373 41.382C42.7373 43.0492 41.5 45 38.7427 44.7195C35.5635 44.3961 32 44 29.5 43.5" stroke="#7C7C7C" stroke-width="1.5"/>
<path d="M49.6141 33.9364L49.2709 33.2695V33.2695L49.6141 33.9364ZM44.2686 35.8304C43.8987 36.017 43.7502 36.468 43.9368 36.8378C44.1234 37.2076 44.5744 37.3562 44.9442 37.1696L44.2686 35.8304ZM49.9572 34.6033C51.0163 34.0584 51.8348 34.1963 52.3648 34.5591C52.9211 34.9399 53.2817 35.6494 53.2478 36.469L54.7465 36.531C54.7997 35.2463 54.2358 34.0222 53.2122 33.3214C52.1623 32.6026 50.7456 32.5108 49.2709 33.2695L49.9572 34.6033ZM44.9442 37.1696C46.7872 36.2398 48.7295 35.235 49.9572 34.6033L49.2709 33.2695C48.039 33.9033 46.1047 34.904 44.2686 35.8304L44.9442 37.1696Z" fill="#7C7C7C"/>
<path d="M1 38V35C1 33.8954 1.89543 33 3 33H11C12.1046 33 13 33.8954 13 35V55C13 56.1046 12.1046 57 11 57H3C1.89543 57 1 56.1046 1 55V45" stroke="#7C7C7C" stroke-width="1.5" stroke-linecap="round"/>
<path d="M9 50V52" stroke="#7C7C7C" stroke-width="1.5" stroke-linecap="round" stroke-linejoin="round"/>
<path d="M26.7789 2.6712C26.9397 1.70683 27.774 1 28.7517 1H31.2483C32.226 1 33.0603 1.70683 33.2211 2.6712L33.6571 5.28769C33.7315 5.7337 34.0513 6.09735 34.4716 6.26401V6.26401C34.8786 6.42535 35.3406 6.38614 35.6968 6.13171L37.8546 4.59043C38.6501 4.02217 39.7399 4.11237 40.4312 4.80369L42.2147 6.5871C42.8955 7.26799 42.9844 8.34133 42.4247 9.12489L41.1595 10.8962C40.8265 11.3623 40.7981 11.973 41.037 12.4936V12.4936C41.2579 12.9747 41.6885 13.3389 42.2106 13.4259L44.3288 13.7789C45.2932 13.9397 46 14.774 46 15.7517V18.4569C46 19.3142 45.3802 20.0458 44.5346 20.1868L42.9213 20.4557C42.2013 20.5757 41.6291 21.1168 41.3735 21.8005V21.8005C41.1366 22.4344 41.1899 23.1469 41.5833 23.6976L42.5026 24.9846C43.0172 25.7051 42.9356 26.6921 42.3094 27.3182L40.2002 29.4275C39.6421 29.9855 38.7624 30.0584 38.1201 29.5996L37.1164 28.8827C36.4456 28.4035 35.5686 28.3714 34.8119 28.6985V28.6985C34.0784 29.0156 33.5009 29.6496 33.3696 30.4378L33.1698 31.6365C33.0386 32.4233 32.3579 33 31.5602 33H28.4398C27.6421 33 26.9614 32.4233 26.8302 31.6365L26.6305 30.4379C26.4991 29.6496 25.9216 29.0155 25.188 28.6985V28.6985C24.4312 28.3713 23.5542 28.4034 22.8833 28.8826L21.8798 29.5994C21.2376 30.0581 20.3579 29.9853 19.7998 29.4273L17.6905 27.318C17.0644 26.6919 16.9827 25.7049 17.4974 24.9844L18.4167 23.6973C18.81 23.1467 18.8633 22.4343 18.6264 21.8004V21.8004C18.3709 21.1167 17.7988 20.5757 17.0788 20.4557L15.4654 20.1868C14.6198 20.0458 14 19.3142 14 18.4569V15.7517C14 14.774 14.7068 13.9397 15.6712 13.7789L17.7891 13.426C18.3114 13.3389 18.7422 12.9746 18.9631 12.4933V12.4933C19.2021 11.9726 19.1737 11.3617 18.8406 10.8955L17.5757 9.12458C17.0161 8.34112 17.1049 7.26792 17.7857 6.58712L19.5693 4.80355C20.2606 4.11223 21.3504 4.02204 22.146 4.5903L24.3039 6.13165C24.6599 6.38599 25.1218 6.4252 25.5286 6.26392V6.26392C25.9488 6.09733 26.2685 5.73379 26.3428 5.28792L26.7789 2.6712Z" stroke="#7C7C7C" stroke-width="1.5"/>
<circle cx="30" cy="17" r="5" stroke="#7C7C7C" stroke-width="1.5"/>
<path d="M30 8C30.5111 8 31.0122 8.0426 31.5 8.12444M23.2917 11C21.8666 12.5923 21 14.6949 21 17C21 21.9706 25.0294 26 30 26C34.9706 26 39 21.9706 39 17C39 15.1499 38.4417 13.4301 37.4845 12M27.0345 8.5C26.5632 8.66443 26.1097 8.86695 25.6778 9.10388M35.5 9.87555C35.0959 9.56315 34.6646 9.28437 34.2101 9.04338" stroke="#7C7C7C" stroke-width="1.5" stroke-linecap="round"/>
</svg>
