<svg width="30" height="38" viewBox="0 0 30 38" fill="none" xmlns="http://www.w3.org/2000/svg">
<path fill-rule="evenodd" clip-rule="evenodd" d="M19 10V2H2V36H28V10H19ZM30 9V38H0V0H20L30 9ZM25.8992 8L21 3.59072V8H25.8992Z" fill="#E31E24"/>
<path d="M5.53036 28.6794H7.34336C7.68403 28.6794 7.98969 28.7447 8.26036 28.8754C8.53102 29.0061 8.74336 29.1927 8.89736 29.4354C9.05136 29.6734 9.12836 29.9511 9.12836 30.2684C9.12836 30.5811 9.04903 30.8587 8.89036 31.1014C8.73636 31.3441 8.52403 31.5331 8.25336 31.6684C7.98269 31.7991 7.67936 31.8644 7.34336 31.8644H6.73436V33.2994H5.53036V28.6794ZM7.35036 30.8144C7.51836 30.8144 7.65136 30.7654 7.74936 30.6674C7.85203 30.5647 7.90336 30.4317 7.90336 30.2684C7.90336 30.1051 7.85203 29.9744 7.74936 29.8764C7.65136 29.7784 7.51836 29.7294 7.35036 29.7294H6.73436V30.8144H7.35036Z" fill="#E31E24"/>
<path d="M9.78231 28.6794H11.3923C11.8683 28.6794 12.2976 28.7727 12.6803 28.9594C13.063 29.1461 13.364 29.4144 13.5833 29.7644C13.8026 30.1097 13.9123 30.5134 13.9123 30.9754C13.9123 31.4327 13.8026 31.8387 13.5833 32.1934C13.364 32.5434 13.063 32.8164 12.6803 33.0124C12.2976 33.2037 11.8683 33.2994 11.3923 33.2994H9.78231V28.6794ZM11.3853 32.2144C11.7633 32.2144 12.0736 32.1047 12.3163 31.8854C12.559 31.6614 12.6803 31.3581 12.6803 30.9754C12.6803 30.5834 12.559 30.2847 12.3163 30.0794C12.0783 29.8741 11.768 29.7714 11.3853 29.7714H10.9863V32.2144H11.3853Z" fill="#E31E24"/>
<path d="M14.6016 28.6794H17.7376V29.7644H15.8056V30.6464H17.3736V31.7314H15.8056V33.2994H14.6016V28.6794Z" fill="#E31E24"/>
<path fill-rule="evenodd" clip-rule="evenodd" d="M25 14.9545H5V12.9545H25V14.9545Z" fill="#E31E24"/>
<path fill-rule="evenodd" clip-rule="evenodd" d="M25 19.9545H5V17.9545H25V19.9545Z" fill="#E31E24"/>
<path fill-rule="evenodd" clip-rule="evenodd" d="M15 10H5V8H15V10Z" fill="#E31E24"/>
</svg>
