<svg width="11" height="14" viewBox="0 0 11 14" fill="none" xmlns="http://www.w3.org/2000/svg">
<path d="M4.22356 1.41772C4.13568 0.89112 3.91338 0.821403 3.71235 0.75872C3.54789 0.707063 3.35756 0.656632 3.16756 0.605721C2.97736 0.554759 2.64941 0.542677 2.31268 0.754576C1.97562 0.96664 1.05616 1.45107 0.684567 2.83787C0.312975 4.22467 0.975793 5.83876 1.06787 6.06519C1.16011 6.29125 2.20348 9.71861 4.79939 11.6252C6.9569 13.2096 7.49724 13.1542 8.03269 13.2472C8.56818 13.3404 9.90268 13.0177 10.3166 12.4231C10.7307 11.8288 10.8818 11.2646 10.8422 11.1276C10.8023 10.9911 10.631 10.8696 10.3836 10.6523C10.1361 10.4349 8.91676 9.37727 8.68059 9.21311C8.44432 9.04906 8.26675 8.95125 8.00092 9.18252C7.73522 9.41335 7.01906 9.90174 6.8022 10.0451C6.58541 10.189 6.41271 10.1678 6.16539 9.95046C5.91785 9.7326 5.07909 9.18919 4.24672 7.93708C3.59909 6.96275 3.27396 5.88673 3.18323 5.55991C3.09238 5.23355 3.28186 5.12058 3.46247 5.01841C3.62449 4.92646 3.83595 4.76575 4.02276 4.63943C4.20912 4.51293 4.288 4.40821 4.43347 4.2457C4.57906 4.08302 4.57555 3.90564 4.54214 3.74558C4.50846 3.58544 4.32783 2.04297 4.22356 1.41772Z" fill="#E31E24"/>
</svg>
