<svg width="23" height="18" viewBox="0 0 23 18" fill="none" xmlns="http://www.w3.org/2000/svg">
<path fill-rule="evenodd" clip-rule="evenodd" d="M2.05873 7.74999C7.86653 5.21428 11.7354 3.53571 13.6743 2.72321C19.2064 0.410714 20.3537 0.00892856 21.1097 0C21.2787 0 21.6434 0.035712 21.8835 0.23214C22.0881 0.392854 22.1414 0.616072 22.1681 0.776786C22.1948 0.9375 22.2304 1.28571 22.2037 1.5625C21.9013 4.72321 20.6028 12.4018 19.9446 15.9375C19.6689 17.4375 19.1175 17.9375 18.5838 17.991C17.4276 18.0982 16.5471 17.2232 15.4264 16.4821C13.6743 15.3303 12.6782 14.6071 10.9794 13.4821C9.01385 12.1786 10.2857 11.4643 11.4063 10.2946C11.6998 9.99105 16.7961 5.33035 16.894 4.91071C16.9028 4.85714 16.9206 4.66071 16.805 4.55356C16.6894 4.44642 16.5204 4.48213 16.3959 4.51785C16.218 4.55356 13.4164 6.41963 7.99104 10.0893C7.19947 10.6339 6.47905 10.9018 5.82978 10.8928C5.11826 10.875 3.74859 10.4911 2.73467 10.1607C1.48951 9.74998 0.493369 9.5357 0.582309 8.8482C0.617885 8.49998 1.11596 8.12499 2.05873 7.74999Z" fill="#E31E24"/>
</svg>
